<?xml version="1.0" encoding="UTF-8" standalone="no"?>
<svg xmlns="http://www.w3.org/2000/svg" width="400" height="400" viewBox="0 0 400 400">
  <!-- Background -->
  <rect width="400" height="400" fill="#151515" />
  
  <!-- Bitcoin Sun/Head -->
  <circle cx="200" cy="150" r="40" stroke="#e67e22" stroke-width="6" fill="none" />
  <path d="M200,110 L200,80" stroke="#e67e22" stroke-width="6" />
  <path d="M235,122 L255,102" stroke="#e67e22" stroke-width="6" />
  <path d="M252,150 L282,150" stroke="#e67e22" stroke-width="6" />
  <path d="M235,178 L255,198" stroke="#e67e22" stroke-width="6" />
  <path d="M148,178 L128,198" stroke="#e67e22" stroke-width="6" />
  <path d="M148,122 L128,102" stroke="#e67e22" stroke-width="6" />
  <path d="M118,150 L148,150" stroke="#e67e22" stroke-width="6" />
  
  <!-- Bitcoin Symbol -->
  <path d="M190,140 L215,140 C220,140 225,145 225,150 C225,155 220,160 215,160 L190,160 L190,140 Z" fill="#e67e22" />
  <path d="M195,135 L195,165" stroke="#e67e22" stroke-width="3" />
  <path d="M205,135 L205,165" stroke="#e67e22" stroke-width="3" />
  
  <!-- Face -->
  <path d="M160,170 C160,170 200,190 240,170" fill="none" stroke="#e67e22" stroke-width="6" />
  <rect x="170" y="190" width="60" height="30" rx="10" fill="none" stroke="#e67e22" stroke-width="6" />
  
  <!-- Headphones -->
  <path d="M160,170 L150,170 L150,190 C150,195 145,200 140,200 L130,200 C125,200 120,195 120,190 L120,170" fill="none" stroke="#e67e22" stroke-width="6" />
  <path d="M240,170 L250,170 L250,190 C250,195 255,200 260,200 L270,200 C275,200 280,195 280,190 L280,170" fill="none" stroke="#e67e22" stroke-width="6" />
  
  <!-- Body -->
  <path d="M200,220 L200,300" stroke="#e67e22" stroke-width="6" />
  <path d="M170,250 L230,250" stroke="#e67e22" stroke-width="6" />
  <path d="M170,280 L230,280" stroke="#e67e22" stroke-width="6" />
  
  <!-- Arms -->
  <path d="M200,240 L130,200" stroke="#e67e22" stroke-width="6" />
  <path d="M200,240 L270,200" stroke="#e67e22" stroke-width="6" />
  
  <!-- Hands -->
  <path d="M120,200 C110,195 100,205 105,215 L110,220 L115,220 L120,215 L115,210 Z" fill="#e67e22" />
  <path d="M280,200 C290,195 300,205 295,215 L290,220 L285,220 L280,215 L285,210 Z" fill="#e67e22" />
  
  <!-- Flame in chest -->
  <path d="M200,250 C200,240 190,235 190,245 C190,255 180,260 190,270 C200,280 210,260 210,245 C210,235 200,240 200,250 Z" fill="#e67e22" />
  
  <!-- Legs and feet -->
  <path d="M170,300 L150,340 C145,345 155,350 160,345 L170,340 Z" fill="#e67e22" />
  <path d="M230,300 L250,340 C255,345 245,350 240,345 L230,340 Z" fill="#e67e22" />
  
  <!-- Lightning and circle symbols -->
  <path d="M120,260 L135,240 L120,240 L135,220" stroke="#e67e22" stroke-width="6" fill="none" />
  <circle cx="280" cy="240" r="15" stroke="#e67e22" stroke-width="6" fill="none" />
  
  <!-- Logo text -->
  <text x="200" y="380" font-family="Arial" font-size="40" font-weight="bold" text-anchor="middle" fill="#e67e22">52TECHSAAS</text>
</svg>
